<svg xmlns="http://www.w3.org/2000/svg" viewBox="0 0 512 512">
  <defs>
    <linearGradient id="brainGrad" x1="0%" y1="0%" x2="100%" y2="100%">
      <stop offset="0%" style="stop-color:#667eea"/>
      <stop offset="100%" style="stop-color:#764ba2"/>
    </linearGradient>
  </defs>
  <!-- Background circle -->
  <circle cx="256" cy="256" r="240" fill="url(#brainGrad)"/>
  <!-- Brain shape - stylized and friendly -->
  <g fill="#ffffff">
    <!-- Left hemisphere -->
    <path d="M160 180c-30 0-55 25-55 55 0 20 11 37 27 47-8 12-12 26-12 42 0 40 32 72 72 72 15 0 29-5 40-13 8 20 27 33 50 33 35 0 64-29 64-64v-8c20-10 34-31 34-55 0-25-15-46-36-56 5-10 8-21 8-33 0-40-32-72-72-72-18 0-35 7-47 18-12-11-29-18-47-18-40 0-72 32-72 72 0 12 3 23 8 33-20 10-34 31-34 55 0 3 0 6 1 9"/>
    <!-- Right hemisphere curves -->
    <ellipse cx="200" cy="220" rx="35" ry="40"/>
    <ellipse cx="312" cy="220" rx="35" ry="40"/>
    <ellipse cx="256" cy="280" rx="50" ry="45"/>
    <!-- Brain folds -->
    <path d="M180 200 Q200 180 220 200" stroke="#667eea" stroke-width="6" fill="none" stroke-linecap="round"/>
    <path d="M292 200 Q312 180 332 200" stroke="#667eea" stroke-width="6" fill="none" stroke-linecap="round"/>
    <path d="M220 260 Q256 240 292 260" stroke="#667eea" stroke-width="6" fill="none" stroke-linecap="round"/>
    <path d="M200 300 Q256 320 312 300" stroke="#667eea" stroke-width="6" fill="none" stroke-linecap="round"/>
    <!-- Center divide -->
    <line x1="256" y1="160" x2="256" y2="340" stroke="#667eea" stroke-width="4" stroke-linecap="round"/>
    <!-- Sparkle effects -->
    <circle cx="170" cy="170" r="8" fill="#ffd700" opacity="0.9"/>
    <circle cx="342" cy="170" r="6" fill="#ffd700" opacity="0.8"/>
    <circle cx="380" cy="280" r="5" fill="#ffd700" opacity="0.7"/>
  </g>
</svg>
